<svg xmlns="http://www.w3.org/2000/svg" xmlns:xlink="http://www.w3.org/1999/xlink" version="1.1" x="0px" y="0px" viewBox="0 0 100 100" style="enable-background:new 0 0 100 100;" xml:space="preserve"><g><path d="M58.2,58.1c2.1-2.1,3.8-4.8,5-7.8c0.7-1.8-0.2-3.8-2.1-4.5c-0.9-0.3-1.8-0.3-2.7,0.1c-0.8,0.4-1.5,1.1-1.8,2   c-0.7,2-1.9,3.8-3.4,5.3c-2.6,2.6-6.2,4.1-10,4.1c-3.7,0-7.4-1.5-10-4.1L20.6,40.7c-2.6-2.6-4.1-6.2-4.1-10c0-3.7,1.5-7.4,4.1-10   c5.5-5.5,14.5-5.5,20,0l11.7,11.7c0.7,0.7,1.7,1.1,2.6,1c0.9,0,1.8-0.4,2.3-1c0.7-0.7,1.1-1.6,1-2.6c0-0.9-0.4-1.8-1-2.3L45.6,15.7   c-4-4-9.3-6.2-15-6.2c0,0,0,0-0.1,0c-5.6,0-10.9,2.2-14.9,6.2c-4,4-6.2,9.3-6.2,15c0,5.6,2.2,10.9,6.2,15l12.5,12.4   c4,4,9.3,6.2,15,6.2C48.7,64.3,54.1,62.1,58.2,58.1z"></path><path d="M84.4,54.3L71.8,41.9c-4-4-9.3-6.2-15-6.2c-5.6,0-10.9,2.2-15,6.2c-2.1,2.1-3.8,4.8-5,7.8c-0.3,0.9-0.3,1.8,0.1,2.7   c0.4,0.8,1.1,1.5,2,1.8c1.8,0.7,3.8-0.2,4.5-2.1c0.8-2,1.9-3.8,3.4-5.3c2.6-2.6,6.2-4.1,10-4.1c3.7,0,7.4,1.5,10,4.1l12.5,12.5   c2.6,2.6,4.1,6.2,4.1,10c0,3.7-1.5,7.4-4.1,10c-2.6,2.7-6.1,4.2-9.8,4.2c0,0-0.1,0-0.1,0c-3.7,0-7.3-1.5-9.9-4.1L47.6,67.7   c-0.7-0.7-1.6-1.1-2.6-1c-0.9,0-1.8,0.4-2.3,1c-0.7,0.7-1.1,1.6-1,2.6c0,0.9,0.4,1.8,1,2.3l11.7,11.7c4,4,9.3,6.2,15,6.2   c5.6,0,10.9-2.2,15-6.2c4-4,6.2-9.3,6.2-15C90.5,63.7,88.4,58.4,84.4,54.3z"></path></g></svg>