<svg xmlns="http://www.w3.org/2000/svg" xmlns:xlink="http://www.w3.org/1999/xlink" viewBox="0 0 480 456.02">
  <defs>
    <style>
      .cls-1 {
        fill: url(#Безымянный_градиент_48);
      }

      .cls-2 {
        fill: url(#Безымянный_градиент_44);
      }

      .cls-3 {
        fill: url(#Безымянный_градиент_62);
      }

      .cls-4 {
        fill: #3e4b8c;
      }
    </style>
    <linearGradient id="Безымянный_градиент_48" data-name="Безымянный градиент 48" x1="107.63" y1="342.76" x2="46.66" y2="377.97" gradientUnits="userSpaceOnUse">
      <stop offset="0" stop-color="#3ddeed" stop-opacity="0"/>
      <stop offset="0.06" stop-color="#3dcbe0" stop-opacity="0.13"/>
      <stop offset="0.19" stop-color="#3da4c7" stop-opacity="0.4"/>
      <stop offset="0.33" stop-color="#3e84b1" stop-opacity="0.61"/>
      <stop offset="0.47" stop-color="#3e6ba1" stop-opacity="0.78"/>
      <stop offset="0.62" stop-color="#3e5995" stop-opacity="0.91"/>
      <stop offset="0.79" stop-color="#3e4e8e" stop-opacity="0.98"/>
      <stop offset="1" stop-color="#3e4b8c"/>
    </linearGradient>
    <linearGradient id="Безымянный_градиент_44" data-name="Безымянный градиент 44" x1="404.27" y1="343.69" x2="465.43" y2="379" xlink:href="#Безымянный_градиент_48"/>
    <linearGradient id="Безымянный_градиент_62" data-name="Безымянный градиент 62" x1="255.91" y1="87.56" x2="255.91" y2="20.48" xlink:href="#Безымянный_градиент_48"/>
  </defs>
  <title>prizemLogo</title>
  <g id="Слой_1" data-name="Слой 1">
    <path class="cls-1" d="M16,260.48A239.86,239.86,0,0,0,132.92,466.55l21.23-36.37a197.78,197.78,0,0,1-96-169.69c0-1.14,0-2.28,0-3.42l-42.11.2C16,258.34,16,259.41,16,260.48Z" transform="translate(-16 -20.48)"/>
    <path class="cls-2" d="M453.84,257.82c0,1.28,0,2.57,0,3.86a197.78,197.78,0,0,1-96,169.69l21.23,36.37A239.86,239.86,0,0,0,496,261.68c0-1.22,0-2.44,0-3.66Z" transform="translate(-16 -20.48)"/>
    <path class="cls-3" d="M256,20.48A238.89,238.89,0,0,0,138.86,51l20.89,36.57a198.06,198.06,0,0,1,192.33-.11L373,50.88A238.89,238.89,0,0,0,256,20.48Z" transform="translate(-16 -20.48)"/>
  </g>
  <g id="ggg">
    <path class="cls-4" d="M323.56,475.85v-63.3c0-3.51-2-6.71-5.15-9-5-3.65-11.21-3.75-12.39-3.75-4.75-1.25-10.72-2.61-17.72-3.75a45.22,45.22,0,0,1-64.79,0c-7,1.14-13,2.51-17.72,3.75-9.65,0-17.55,5.75-17.55,12.78v63.3c0,.22,0,.44,0,.65H323.52C323.53,476.28,323.56,476.07,323.56,475.85Z" transform="translate(-16 -20.48)"/>
    <ellipse class="cls-4" cx="239.91" cy="335.79" rx="37.34" ry="44.34"/>
    <path class="cls-4" d="M494.49,217.93v-63.3c0-3.51-2-6.71-5.15-9-5-3.65-11.21-3.75-12.39-3.75-4.75-1.25-10.72-2.61-17.72-3.75a45.22,45.22,0,0,1-64.79,0c-7,1.14-13,2.51-17.72,3.75-9.65,0-17.55,5.75-17.55,12.78v63.3c0,.22,0,.44,0,.65H494.44C494.46,218.37,494.49,218.15,494.49,217.93Z" transform="translate(-16 -20.48)"/>
    <ellipse class="cls-4" cx="410.83" cy="77.87" rx="37.34" ry="44.34"/>
    <path class="cls-4" d="M152.64,222.73v-63.3c0-3.51-2-6.71-5.15-9-5-3.65-11.21-3.75-12.39-3.75-4.75-1.25-10.72-2.61-17.72-3.75A44.07,44.07,0,0,1,85,156.57a44.07,44.07,0,0,1-32.4-13.67c-7,1.14-13,2.51-17.72,3.75-9.65,0-17.55,5.75-17.55,12.78v63.3c0,.22,0,.44,0,.65H152.59C152.61,223.17,152.64,223,152.64,222.73Z" transform="translate(-16 -20.48)"/>
    <ellipse class="cls-4" cx="68.98" cy="82.67" rx="37.34" ry="44.34"/>
  </g>
</svg>
