<svg xmlns="http://www.w3.org/2000/svg" height="256pt" width="256pt" version="1.0" preserveAspectRatio="xMidYMid meet" viewBox="0 0 256.000000 256.000000"><g transform="translate(0 256) scale(0.1 -0.1)"><path d="m1.14e3 2.55e3c-84-11-201-39-280-66-428-150-739-507-836-958-26-119-26-381 0-500 111-515 497-899 1.01e3 -1.01e3 125-26 365-26 490 0 262 54 465 164 656 355 186 185 300 394 355 651 26 119 26 381 0 500-109 507-483 886-986 1e3 -83 19-331 33-410 23zm270-104c561-69 982-499 1.04e3 -1.06e3 34-319-84-665-307-907l-59-63-75 40c-41 23-125 61-186 85-141 57-185 80-229 119-56 49-65 74-65 188 0 92 2 104 25 134 32 42 73 136 81 186 4 22 12 40 19 40 18 0 51 41 64 79 16 49 14 118-5 150-15 26-15 33 1 97 23 92 33 211 23 297-14 131-80 221-182 248-22 6-55 24-73 40-65 56-204 74-344 45-159-34-266-135-299-283-17-72-14-233 6-330 15-79 16-88 0-113-19-33-21-102-5-151 13-38 46-79 64-79 7 0 15-18 19-40 8-52 47-140 83-186 27-36 28-41 26-142-2-111-10-135-62-180-36-31-122-74-243-123-57-22-137-59-178-81l-75-40-59 63c-149 162-259 383-297 599-17 98-17 305 0 400 31 175 116 369 223 511 246 326 669 508 1.07e3 459z"/></g></svg>
