<svg xmlns="http://www.w3.org/2000/svg" xmlns:xlink="http://www.w3.org/1999/xlink" version="1.1" x="0px" y="0px" viewBox="0 0 100 100" enable-background="new 0 0 100 100" xml:space="preserve"><g><path d="M27,87c-3.313,0-6-2.687-6-6c0-2.938-1.144-5.7-3.221-7.778C15.701,71.145,12.938,70,10,70c-3.313,0-6-2.687-6-6   s2.687-6,6-6c6.144,0,11.92,2.393,16.264,6.737C30.607,69.08,33,74.856,33,81C33,84.313,30.313,87,27,87z"></path></g><g><path d="M44,86.999c-3.313,0-6-2.687-6-6c0-7.479-2.912-14.51-8.2-19.799C24.511,55.912,17.479,53,10,53c-3.313,0-6-2.687-6-6   s2.687-6,6-6c10.685,0,20.729,4.16,28.284,11.716C45.84,60.271,50,70.314,50,80.999C50,84.312,47.313,86.999,44,86.999z"></path></g><g><path d="M10,87c-1.58,0-3.13-0.641-4.24-1.76C4.64,84.13,4,82.58,4,81s0.64-3.13,1.76-4.24C6.88,75.64,8.42,75,10,75   s3.12,0.64,4.24,1.76C15.359,77.87,16,79.42,16,81s-0.641,3.12-1.76,4.24C13.13,86.359,11.58,87,10,87z"></path></g><g><path d="M90,87H62c-3.313,0-6-2.687-6-6s2.687-6,6-6h22V25H16v4c0,3.313-2.687,6-6,6s-6-2.687-6-6V19c0-3.313,2.687-6,6-6h80   c3.313,0,6,2.687,6,6v62C96,84.313,93.313,87,90,87z"></path></g></svg>