<svg xmlns="http://www.w3.org/2000/svg" xmlns:xlink="http://www.w3.org/1999/xlink" version="1.1" x="0px" y="0px" viewBox="0 0 100 100" style="enable-background:new 0 0 100 100;" xml:space="preserve"><g><g><path fill-opacity=".5" d="M56.4,75.3c-3.5-3.5-9.3-3.5-12.8,0l6.4,6.4L56.4,75.3z"></path><path fill-opacity=".5"  d="M62.8,68.8l6.4-6.4c-10.6-10.6-27.9-10.6-38.5,0l6.4,6.4C44.2,61.8,55.8,61.8,62.8,68.8z"></path><path fill-opacity=".5"  d="M75.7,56l6.4-6.4c-17.7-17.7-46.5-17.7-64.2,0l6.4,6.4C38.5,41.8,61.5,41.8,75.7,56z"></path><path fill-opacity=".5" d="M88.5,43.1l6.4-6.4C70.1,11.9,29.9,11.9,5,36.7l6.4,6.4C32.7,21.9,67.3,21.9,88.5,43.1z"></path></g><path d="M86,65.9c0-0.1,0-0.3,0-0.4c0-3.3-2.7-6-6-6s-6,2.7-6,6c0,0.1,0,0.3,0,0.4h-2v16h16v-16H86z M75.6,65.9   c-0.2-2.6,1.8-4.8,4.4-4.8c2.6,0,4.6,2.2,4.4,4.8c0,0,0,0,0,0H75.6z"></path></g></svg>